<svg xmlns="http://www.w3.org/2000/svg" viewBox="0 0 800 600">
  <defs>
    <linearGradient id="g2" x1="0" y1="0" x2="1" y2="1">
      <stop offset="0%" stop-color="#fff1f2"/>
      <stop offset="100%" stop-color="#fee2e2"/>
    </linearGradient>
  </defs>
  <rect width="800" height="600" fill="url(#g2)"/>
  <path d="M260 260c42-46 70-72 100-72 32 0 60 26 100 72" fill="none" stroke="#fb7185" stroke-width="26" stroke-linecap="round" stroke-linejoin="round"/>
  <path d="M360 200c-26-40-50-60-84-60-46 0-82 38-82 90 0 60 40 108 112 160" fill="none" stroke="#fecaca" stroke-width="18" stroke-linecap="round" stroke-linejoin="round" opacity="0.9"/>
  <path d="M440 472c24-20 46-38 68-58 56-52 88-94 88-144 0-52-36-90-82-90-40 0-72 26-94 58" fill="#fee2e2" stroke="#fb7185" stroke-width="6" stroke-linecap="round" stroke-linejoin="round"/>
  <circle cx="210" cy="160" r="10" fill="#fb7185" opacity="0.85"/>
  <circle cx="560" cy="180" r="12" fill="#f97316" opacity="0.85"/>
</svg>
