<svg xmlns="http://www.w3.org/2000/svg" viewBox="0 0 800 600">
  <defs>
    <linearGradient id="g4" x1="0" y1="0" x2="1" y2="1">
      <stop offset="0%" stop-color="#ecfeff"/>
      <stop offset="100%" stop-color="#dcfce7"/>
    </linearGradient>
  </defs>
  <rect width="800" height="600" fill="url(#g4)"/>
  <path d="M200 360c40-60 60-86 100-86 40 0 60 26 100 86" fill="none" stroke="#4ade80" stroke-width="16" stroke-linecap="round" stroke-linejoin="round" opacity="0.9"/>
  <path d="M320 274c-32-52-60-76-104-76-38 0-70 26-82 66" fill="none" stroke="#86efac" stroke-width="14" stroke-linecap="round" opacity="0.8"/>
  <path d="M340 274c32-52 60-76 104-76 50 0 92 36 104 90" fill="none" stroke="#22c55e" stroke-width="14" stroke-linecap="round" opacity="0.85"/>
  <circle cx="232" cy="244" r="18" fill="#22c55e" opacity="0.9"/>
  <circle cx="312" cy="230" r="18" fill="#22c55e" opacity="0.9"/>
  <circle cx="392" cy="230" r="18" fill="#22c55e" opacity="0.9"/>
  <circle cx="472" cy="244" r="18" fill="#22c55e" opacity="0.9"/>
</svg>
