<svg xmlns="http://www.w3.org/2000/svg" viewBox="0 0 800 600">
  <defs>
    <linearGradient id="g3" x1="0" y1="0" x2="1" y2="1">
      <stop offset="0%" stop-color="#e0f2fe"/>
      <stop offset="100%" stop-color="#ecfeff"/>
    </linearGradient>
  </defs>
  <rect width="800" height="600" fill="url(#g3)"/>
  <rect x="180" y="240" width="170" height="140" rx="32" fill="#f9fafb" stroke="#bae6fd" stroke-width="4"/>
  <rect x="450" y="220" width="170" height="160" rx="32" fill="#f9fafb" stroke="#a5b4fc" stroke-width="4"/>
  <circle cx="240" cy="240" r="28" fill="#bfdbfe"/>
  <circle cx="510" cy="220" r="28" fill="#c4b5fd"/>
  <path d="M230 310c16-18 30-26 50-26 18 0 32 6 48 22" fill="none" stroke="#93c5fd" stroke-width="10" stroke-linecap="round"/>
  <path d="M500 286c16-18 30-26 50-26 18 0 32 6 48 22" fill="none" stroke="#a5b4fc" stroke-width="10" stroke-linecap="round"/>
  <path d="M332 260c40-24 64-34 96-34 32 0 56 8 96 30" fill="none" stroke="#7dd3fc" stroke-width="12" stroke-linecap="round" opacity="0.7"/>
</svg>
